<svg version="1.1" xmlns="http://www.w3.org/2000/svg" xmlns:xlink="http://www.w3.org/1999/xlink" width="800px" height="800px" viewBox="0,0,256,256"><g fill="#f1f3f4" fill-rule="none" stroke="none" stroke-width="1" stroke-linecap="butt" stroke-linejoin="miter" stroke-miterlimit="10" stroke-dasharray="" stroke-dashoffset="0" font-family="none" font-weight="none" font-size="none" text-anchor="none" style="mix-blend-mode: normal"><g transform="translate(0,0) scale(10.66667,10.66667)"><path d="M18,8c0,1.10457 -0.8954,2 -2,2c-1.1046,0 -2,-0.89543 -2,-2c0,-1.10457 0.8954,-2 2,-2c1.1046,0 2,0.89543 2,2z" fill-rule="nonzero"></path><path d="M11.9426,1.25h0.1148c2.3084,-0.00001 4.1174,-0.00002 5.5289,0.18975c1.4447,0.19424 2.5848,0.59958 3.4796,1.49439c0.8948,0.89481 1.3001,2.03483 1.4944,3.47957c0.1897,1.41148 0.1897,3.22052 0.1897,5.52889v0.0883c0,1.9088 0,3.4714 -0.1037,4.7436c-0.1041,1.2786 -0.3176,2.3469 -0.7954,3.2342c-0.2108,0.3914 -0.4697,0.7419 -0.785,1.0572c-0.8948,0.8948 -2.0349,1.3001 -3.4796,1.4944c-1.4115,0.1897 -3.2205,0.1897 -5.5289,0.1897h-0.1148c-2.30837,0 -4.11741,0 -5.52889,-0.1897c-1.44474,-0.1943 -2.58476,-0.5996 -3.47957,-1.4944c-0.79328,-0.7933 -1.20294,-1.7807 -1.42079,-3.0055c-0.214,-1.2031 -0.25315,-2.7001 -0.26128,-4.5589c-0.00207,-0.4728 -0.00207,-0.9729 -0.00207,-1.5005v-0.0584c-0.00001,-2.30836 -0.00002,-4.11741 0.18975,-5.52889c0.19424,-1.44474 0.59958,-2.58476 1.49439,-3.47957c0.89481,-0.89481 2.03483,-1.30015 3.47957,-1.49439c1.41148,-0.18977 3.22053,-0.18976 5.52889,-0.18975zM6.61358,2.92637c-1.27841,0.17188 -2.04913,0.49877 -2.61878,1.06843c-0.56966,0.56965 -0.89655,1.34037 -1.06843,2.61878c-0.17478,1.29998 -0.17637,3.0082 -0.17637,5.38642c0,0.2905 0,0.5715 0.00034,0.8435l1.00114,-0.876c0.91127,-0.7973 2.28469,-0.7516 3.1409,0.1046l4.28972,4.2897c0.6872,0.6873 1.769,0.781 2.5642,0.2221l0.2982,-0.2095c1.1442,-0.8042 2.6923,-0.711 3.7319,0.2246l2.8304,2.5473c0.2849,-0.5983 0.4541,-1.3845 0.5445,-2.4936c0.0981,-1.2045 0.0987,-2.7068 0.0987,-4.6527c0,-2.37822 -0.0016,-4.08644 -0.1764,-5.38642c-0.1718,-1.27841 -0.4987,-2.04913 -1.0684,-2.61878c-0.5697,-0.56966 -1.3404,-0.89655 -2.6188,-1.06843c-1.3,-0.17478 -3.0082,-0.17637 -5.3864,-0.17637c-2.37822,0 -4.08644,0.00159 -5.38642,0.17637z" fill-rule="evenodd"></path></g></g></svg>